<svg xmlns="http://www.w3.org/2000/svg" xmlns:xlink="http://www.w3.org/1999/xlink" width="2000" zoomAndPan="magnify" viewBox="0 0 1500 599.999999" height="800" preserveAspectRatio="xMidYMid meet" version="1.0"><defs><g/><clipPath id="b1dc48d659"><rect x="0" width="1033" y="0" height="368"/></clipPath><clipPath id="07782c968b"><rect x="0" width="539" y="0" height="245"/></clipPath><clipPath id="7cb4ab6866"><path d="M 1212.8125 135.960938 L 1229.292969 135.960938 L 1229.292969 150.214844 L 1212.8125 150.214844 Z M 1212.8125 135.960938 " clip-rule="nonzero"/></clipPath><clipPath id="d6bf74cc27"><path d="M 1221.078125 150.214844 L 1212.863281 135.960938 L 1229.292969 135.960938 Z M 1221.078125 150.214844 " clip-rule="nonzero"/></clipPath><clipPath id="41396f111b"><path d="M 0.8125 0.960938 L 17.292969 0.960938 L 17.292969 15.214844 L 0.8125 15.214844 Z M 0.8125 0.960938 " clip-rule="nonzero"/></clipPath><clipPath id="594434a060"><path d="M 9.078125 15.214844 L 0.863281 0.960938 L 17.292969 0.960938 Z M 9.078125 15.214844 " clip-rule="nonzero"/></clipPath><clipPath id="ec76a74b56"><rect x="0" width="18" y="0" height="16"/></clipPath></defs><rect x="-150" width="1800" fill="#ffffff" y="-60" height="719.999999" fill-opacity="1"/><rect x="-150" width="1800" fill="#0d0d0d" y="-60" height="719.999999" fill-opacity="1"/><g transform="matrix(1, 0, 0, 1, 233, 54)"><g clip-path="url(#b1dc48d659)"><g fill="#ffffff" fill-opacity="1"><g transform="translate(0.349586, 275.645331)"><g><path d="M 188.46875 -183.5 L 123.390625 0 L 67.4375 0 L 2.359375 -183.5 L 49.921875 -183.5 L 95.40625 -44.96875 L 141.15625 -183.5 Z M 188.46875 -183.5 "/></g></g></g><g fill="#ffffff" fill-opacity="1"><g transform="translate(188.559862, 275.645331)"><g><path d="M 60.90625 -147.6875 L 60.90625 -110.578125 L 120.765625 -110.578125 L 120.765625 -76.0625 L 60.90625 -76.0625 L 60.90625 -35.8125 L 128.609375 -35.8125 L 128.609375 0 L 16.203125 0 L 16.203125 -183.5 L 128.609375 -183.5 L 128.609375 -147.6875 Z M 60.90625 -147.6875 "/></g></g></g><g fill="#ffffff" fill-opacity="1"><g transform="translate(327.36496, 275.645331)"><g><path d="M 180.375 0 L 135.671875 0 L 60.90625 -113.1875 L 60.90625 0 L 16.203125 0 L 16.203125 -183.5 L 60.90625 -183.5 L 135.671875 -69.796875 L 135.671875 -183.5 L 180.375 -183.5 Z M 180.375 0 "/></g></g></g><g fill="#ffffff" fill-opacity="1"><g transform="translate(521.326106, 275.645331)"><g><path d="M 148.21875 -183.5 L 148.21875 -147.6875 L 99.59375 -147.6875 L 99.59375 0 L 54.890625 0 L 54.890625 -147.6875 L 6.28125 -147.6875 L 6.28125 -183.5 Z M 148.21875 -183.5 "/></g></g></g><g fill="#ffffff" fill-opacity="1"><g transform="translate(673.201327, 275.645331)"><g><path d="M 109.796875 0 L 71.625 -69.265625 L 60.90625 -69.265625 L 60.90625 0 L 16.203125 0 L 16.203125 -183.5 L 91.234375 -183.5 C 105.691406 -183.5 118.019531 -180.972656 128.21875 -175.921875 C 138.414062 -170.867188 146.039062 -163.941406 151.09375 -155.140625 C 156.144531 -146.335938 158.671875 -136.535156 158.671875 -125.734375 C 158.671875 -113.535156 155.226562 -102.644531 148.34375 -93.0625 C 141.457031 -83.476562 131.304688 -76.679688 117.890625 -72.671875 L 160.234375 0 Z M 60.90625 -100.90625 L 88.609375 -100.90625 C 96.804688 -100.90625 102.953125 -102.90625 107.046875 -106.90625 C 111.140625 -110.914062 113.1875 -116.582031 113.1875 -123.90625 C 113.1875 -130.875 111.140625 -136.363281 107.046875 -140.375 C 102.953125 -144.382812 96.804688 -146.390625 88.609375 -146.390625 L 60.90625 -146.390625 Z M 60.90625 -100.90625 "/></g></g></g><g fill="#ffffff" fill-opacity="1"><g transform="translate(841.022156, 275.645331)"><g><path d="M 130.4375 -32.421875 L 61.953125 -32.421875 L 50.96875 0 L 4.1875 0 L 70.578125 -183.5 L 122.34375 -183.5 L 188.734375 0 L 141.421875 0 Z M 118.9375 -66.921875 L 96.203125 -134.09375 L 73.71875 -66.921875 Z M 118.9375 -66.921875 "/></g></g></g></g></g><g transform="matrix(1, 0, 0, 1, 730, 313)"><g clip-path="url(#07782c968b)"><g fill="#ababab" fill-opacity="1"><g transform="translate(0.615985, 183.432811)"><g><path d="M 7.5 -47.921875 C 7.5 -57.796875 9.472656 -66.421875 13.421875 -73.796875 C 17.367188 -81.179688 22.851562 -86.90625 29.875 -90.96875 C 36.90625 -95.03125 44.953125 -97.0625 54.015625 -97.0625 C 65.753906 -97.0625 75.425781 -94.210938 83.03125 -88.515625 C 90.644531 -82.828125 95.671875 -74.929688 98.109375 -64.828125 L 81.03125 -64.828125 C 79.40625 -70.640625 76.238281 -75.226562 71.53125 -78.59375 C 66.832031 -81.957031 60.992188 -83.640625 54.015625 -83.640625 C 44.953125 -83.640625 37.632812 -80.53125 32.0625 -74.3125 C 26.488281 -68.101562 23.703125 -59.304688 23.703125 -47.921875 C 23.703125 -36.421875 26.488281 -27.53125 32.0625 -21.25 C 37.632812 -14.976562 44.953125 -11.84375 54.015625 -11.84375 C 60.992188 -11.84375 66.804688 -13.46875 71.453125 -16.71875 C 76.097656 -19.976562 79.289062 -24.628906 81.03125 -30.671875 L 98.109375 -30.671875 C 95.554688 -20.910156 90.445312 -13.097656 82.78125 -7.234375 C 75.113281 -1.367188 65.523438 1.5625 54.015625 1.5625 C 44.953125 1.5625 36.90625 -0.46875 29.875 -4.53125 C 22.851562 -8.59375 17.367188 -14.34375 13.421875 -21.78125 C 9.472656 -29.21875 7.5 -37.929688 7.5 -47.921875 Z M 7.5 -47.921875 "/></g></g></g><g fill="#ababab" fill-opacity="1"><g transform="translate(104.654502, 183.432811)"><g><path d="M 55.0625 1.5625 C 46.125 1.5625 38.019531 -0.46875 30.75 -4.53125 C 23.488281 -8.59375 17.796875 -14.367188 13.671875 -21.859375 C 9.554688 -29.359375 7.5 -38.046875 7.5 -47.921875 C 7.5 -57.679688 9.617188 -66.304688 13.859375 -73.796875 C 18.097656 -81.296875 23.875 -87.046875 31.1875 -91.046875 C 38.507812 -95.054688 46.703125 -97.0625 55.765625 -97.0625 C 64.828125 -97.0625 73.015625 -95.054688 80.328125 -91.046875 C 87.648438 -87.046875 93.429688 -81.328125 97.671875 -73.890625 C 101.910156 -66.453125 104.03125 -57.796875 104.03125 -47.921875 C 104.03125 -38.046875 101.851562 -29.359375 97.5 -21.859375 C 93.144531 -14.367188 87.25 -8.59375 79.8125 -4.53125 C 72.375 -0.46875 64.125 1.5625 55.0625 1.5625 Z M 55.0625 -12.375 C 60.757812 -12.375 66.101562 -13.707031 71.09375 -16.375 C 76.09375 -19.050781 80.128906 -23.0625 83.203125 -28.40625 C 86.285156 -33.75 87.828125 -40.253906 87.828125 -47.921875 C 87.828125 -55.585938 86.316406 -62.09375 83.296875 -67.4375 C 80.273438 -72.78125 76.320312 -76.757812 71.4375 -79.375 C 66.5625 -81.988281 61.28125 -83.296875 55.59375 -83.296875 C 49.78125 -83.296875 44.460938 -81.988281 39.640625 -79.375 C 34.816406 -76.757812 30.953125 -72.78125 28.046875 -67.4375 C 25.148438 -62.09375 23.703125 -55.585938 23.703125 -47.921875 C 23.703125 -40.140625 25.125 -33.578125 27.96875 -28.234375 C 30.8125 -22.890625 34.613281 -18.910156 39.375 -16.296875 C 44.144531 -13.679688 49.375 -12.375 55.0625 -12.375 Z M 55.0625 -12.375 "/></g></g></g><g fill="#ababab" fill-opacity="1"><g transform="translate(214.443887, 183.432811)"><g><path d="M 52.28125 -82.421875 L 32.234375 -82.421875 L 32.234375 0 L 16.375 0 L 16.375 -82.421875 L 4.015625 -82.421875 L 4.015625 -95.5 L 16.375 -95.5 L 16.375 -102.296875 C 16.375 -112.984375 19.132812 -120.796875 24.65625 -125.734375 C 30.175781 -130.671875 39.035156 -133.140625 51.234375 -133.140625 L 51.234375 -119.890625 C 44.265625 -119.890625 39.351562 -118.523438 36.5 -115.796875 C 33.65625 -113.066406 32.234375 -108.566406 32.234375 -102.296875 L 32.234375 -95.5 L 52.28125 -95.5 Z M 52.28125 -82.421875 "/></g></g></g><g fill="#ababab" fill-opacity="1"><g transform="translate(270.035662, 183.432811)"><g><path d="M 52.28125 -82.421875 L 32.234375 -82.421875 L 32.234375 0 L 16.375 0 L 16.375 -82.421875 L 4.015625 -82.421875 L 4.015625 -95.5 L 16.375 -95.5 L 16.375 -102.296875 C 16.375 -112.984375 19.132812 -120.796875 24.65625 -125.734375 C 30.175781 -130.671875 39.035156 -133.140625 51.234375 -133.140625 L 51.234375 -119.890625 C 44.265625 -119.890625 39.351562 -118.523438 36.5 -115.796875 C 33.65625 -113.066406 32.234375 -108.566406 32.234375 -102.296875 L 32.234375 -95.5 L 52.28125 -95.5 Z M 52.28125 -82.421875 "/></g></g></g><g fill="#ababab" fill-opacity="1"><g transform="translate(325.627437, 183.432811)"><g><path d="M 100.546875 -51.40625 C 100.546875 -48.382812 100.375 -45.191406 100.03125 -41.828125 L 23.703125 -41.828125 C 24.285156 -32.410156 27.507812 -25.054688 33.375 -19.765625 C 39.238281 -14.484375 46.351562 -11.84375 54.71875 -11.84375 C 61.570312 -11.84375 67.289062 -13.441406 71.875 -16.640625 C 76.46875 -19.835938 79.695312 -24.109375 81.5625 -29.453125 L 98.640625 -29.453125 C 96.078125 -20.273438 90.960938 -12.8125 83.296875 -7.0625 C 75.628906 -1.3125 66.101562 1.5625 54.71875 1.5625 C 45.65625 1.5625 37.550781 -0.46875 30.40625 -4.53125 C 23.257812 -8.59375 17.65625 -14.367188 13.59375 -21.859375 C 9.53125 -29.359375 7.5 -38.046875 7.5 -47.921875 C 7.5 -57.796875 9.472656 -66.453125 13.421875 -73.890625 C 17.367188 -81.328125 22.914062 -87.046875 30.0625 -91.046875 C 37.207031 -95.054688 45.425781 -97.0625 54.71875 -97.0625 C 63.78125 -97.0625 71.796875 -95.085938 78.765625 -91.140625 C 85.734375 -87.191406 91.101562 -81.757812 94.875 -74.84375 C 98.65625 -67.9375 100.546875 -60.125 100.546875 -51.40625 Z M 84.171875 -54.71875 C 84.171875 -60.757812 82.832031 -65.957031 80.15625 -70.3125 C 77.488281 -74.664062 73.859375 -77.972656 69.265625 -80.234375 C 64.679688 -82.503906 59.597656 -83.640625 54.015625 -83.640625 C 46.003906 -83.640625 39.179688 -81.082031 33.546875 -75.96875 C 27.910156 -70.863281 24.6875 -63.78125 23.875 -54.71875 Z M 84.171875 -54.71875 "/></g></g></g><g fill="#ababab" fill-opacity="1"><g transform="translate(431.93145, 183.432811)"><g><path d="M 100.546875 -51.40625 C 100.546875 -48.382812 100.375 -45.191406 100.03125 -41.828125 L 23.703125 -41.828125 C 24.285156 -32.410156 27.507812 -25.054688 33.375 -19.765625 C 39.238281 -14.484375 46.351562 -11.84375 54.71875 -11.84375 C 61.570312 -11.84375 67.289062 -13.441406 71.875 -16.640625 C 76.46875 -19.835938 79.695312 -24.109375 81.5625 -29.453125 L 98.640625 -29.453125 C 96.078125 -20.273438 90.960938 -12.8125 83.296875 -7.0625 C 75.628906 -1.3125 66.101562 1.5625 54.71875 1.5625 C 45.65625 1.5625 37.550781 -0.46875 30.40625 -4.53125 C 23.257812 -8.59375 17.65625 -14.367188 13.59375 -21.859375 C 9.53125 -29.359375 7.5 -38.046875 7.5 -47.921875 C 7.5 -57.796875 9.472656 -66.453125 13.421875 -73.890625 C 17.367188 -81.328125 22.914062 -87.046875 30.0625 -91.046875 C 37.207031 -95.054688 45.425781 -97.0625 54.71875 -97.0625 C 63.78125 -97.0625 71.796875 -95.085938 78.765625 -91.140625 C 85.734375 -87.191406 91.101562 -81.757812 94.875 -74.84375 C 98.65625 -67.9375 100.546875 -60.125 100.546875 -51.40625 Z M 84.171875 -54.71875 C 84.171875 -60.757812 82.832031 -65.957031 80.15625 -70.3125 C 77.488281 -74.664062 73.859375 -77.972656 69.265625 -80.234375 C 64.679688 -82.503906 59.597656 -83.640625 54.015625 -83.640625 C 46.003906 -83.640625 39.179688 -81.082031 33.546875 -75.96875 C 27.910156 -70.863281 24.6875 -63.78125 23.875 -54.71875 Z M 84.171875 -54.71875 "/></g></g></g></g></g><path stroke-linecap="butt" transform="matrix(0.399746, 0.634589, -0.634589, 0.399746, 1185.476902, 78.466716)" fill="none" stroke-linejoin="miter" d="M -0.000161112 4.998748 L 90.486683 4.99857 " stroke="#ffffff" stroke-width="10" stroke-opacity="1" stroke-miterlimit="4"/><path stroke-linecap="butt" transform="matrix(-0.385819, 0.643151, -0.643151, -0.385819, 1261.499251, 82.396512)" fill="none" stroke-linejoin="miter" d="M 0.000383644 4.997185 L 88.756266 5.000914 " stroke="#ffffff" stroke-width="10" stroke-opacity="1" stroke-miterlimit="4"/><g clip-path="url(#7cb4ab6866)"><g clip-path="url(#d6bf74cc27)"><g transform="matrix(1, 0, 0, 1, 1212, 135)"><g clip-path="url(#ec76a74b56)"><g clip-path="url(#41396f111b)"><g clip-path="url(#594434a060)"><path fill="#ffffff" d="M 17.292969 15.214844 L 0.871094 15.214844 L 0.871094 0.960938 L 17.292969 0.960938 Z M 17.292969 15.214844 " fill-opacity="1" fill-rule="nonzero"/></g></g></g></g></g></g><path stroke-linecap="butt" transform="matrix(0.75, 0.000000000000000356, -0.000000000000000356, 0.75, 1206.541701, 143.089715)" fill="none" stroke-linejoin="miter" d="M 0.00168997 6.000171 L 59.876693 6.000171 " stroke="#000000" stroke-width="12" stroke-opacity="1" stroke-miterlimit="4"/></svg>