<svg xmlns="http://www.w3.org/2000/svg" xmlns:xlink="http://www.w3.org/1999/xlink" width="300" zoomAndPan="magnify" viewBox="0 0 224.87999 225" height="300" preserveAspectRatio="xMidYMid meet" version="1.0"><defs><clipPath id="fef27d5971"><path d="M 0 0.0585938 L 224.761719 0.0585938 L 224.761719 224.9375 L 0 224.9375 Z M 0 0.0585938 " clip-rule="nonzero"/></clipPath><clipPath id="93ebdda10d"><path d="M 0.238281 0.167969 L 207 0.167969 L 207 189.1875 L 0.238281 189.1875 Z M 0.238281 0.167969 " clip-rule="nonzero"/></clipPath><clipPath id="e2ac6f0b49"><path d="M 11 0.167969 L 212.523438 0.167969 L 212.523438 189.1875 L 11 189.1875 Z M 11 0.167969 " clip-rule="nonzero"/></clipPath><clipPath id="8bea2a0b44"><path d="M 88.003906 149.382812 L 128.496094 149.382812 L 128.496094 184.402344 L 88.003906 184.402344 Z M 88.003906 149.382812 " clip-rule="nonzero"/></clipPath><clipPath id="fe55625fcb"><path d="M 108.308594 184.402344 L 88.125 149.382812 L 128.496094 149.382812 Z M 108.308594 184.402344 " clip-rule="nonzero"/></clipPath><clipPath id="2cb71012f4"><path d="M 0.03125 0.382812 L 40.496094 0.382812 L 40.496094 35.402344 L 0.03125 35.402344 Z M 0.03125 0.382812 " clip-rule="nonzero"/></clipPath><clipPath id="3c0af4dc12"><path d="M 20.308594 35.402344 L 0.125 0.382812 L 40.496094 0.382812 Z M 20.308594 35.402344 " clip-rule="nonzero"/></clipPath><clipPath id="00211e1c9e"><rect x="0" width="41" y="0" height="36"/></clipPath><clipPath id="1af091f471"><path d="M 61 166 L 194 166 L 194 189.1875 L 61 189.1875 Z M 61 166 " clip-rule="nonzero"/></clipPath><clipPath id="3771ef3b1f"><rect x="0" width="213" y="0" height="190"/></clipPath></defs><g clip-path="url(#fef27d5971)"><path fill="#ffffff" d="M 0 0.0585938 L 224.878906 0.0585938 L 224.878906 224.941406 L 0 224.941406 Z M 0 0.0585938 " fill-opacity="1" fill-rule="nonzero"/><path fill="#0d0d0d" d="M 0 0.0585938 L 224.878906 0.0585938 L 224.878906 224.941406 L 0 224.941406 Z M 0 0.0585938 " fill-opacity="1" fill-rule="nonzero"/></g><g transform="matrix(1, 0, 0, 1, 6, 21)"><g clip-path="url(#3771ef3b1f)"><g clip-path="url(#93ebdda10d)"><path stroke-linecap="butt" transform="matrix(0.982189, 1.559206, -1.559206, 0.982189, 20.835191, 8.118522)" fill="none" stroke-linejoin="miter" d="M 0.000789199 5.000562 L 90.486813 5.000176 " stroke="#ffffff" stroke-width="10" stroke-opacity="1" stroke-miterlimit="4"/></g><g clip-path="url(#e2ac6f0b49)"><path stroke-linecap="butt" transform="matrix(-0.94797, 1.580244, -1.580244, -0.94797, 207.624664, 17.774165)" fill="none" stroke-linejoin="miter" d="M 0.000610486 5.000132 L 88.758122 5.000892 " stroke="#ffffff" stroke-width="10" stroke-opacity="1" stroke-miterlimit="4"/></g><g clip-path="url(#8bea2a0b44)"><g clip-path="url(#fe55625fcb)"><g transform="matrix(1, 0, 0, 1, 88, 149)"><g clip-path="url(#00211e1c9e)"><g clip-path="url(#2cb71012f4)"><g clip-path="url(#3c0af4dc12)"><path fill="#ffffff" d="M 40.496094 35.402344 L 0.140625 35.402344 L 0.140625 0.382812 L 40.496094 0.382812 Z M 40.496094 35.402344 " fill-opacity="1" fill-rule="nonzero"/></g></g></g></g></g></g><g clip-path="url(#1af091f471)"><path stroke-linecap="butt" transform="matrix(1.842774, 0.000000000000000875, -0.000000000000000875, 1.842774, 72.592193, 166.899348)" fill="none" stroke-linejoin="miter" d="M 0.000845126 6.000562 L 59.875745 6.000562 " stroke="#000000" stroke-width="12" stroke-opacity="1" stroke-miterlimit="4"/></g></g></g></svg>